<svg width="48" height="15" viewBox="0 0 48 15" fill="none" xmlns="http://www.w3.org/2000/svg">
<path d="M38.2188 12.028C37.4255 12.028 36.6882 11.902 36.0068 11.65C35.3348 11.398 34.7515 11.0433 34.2568 10.586C33.7622 10.1193 33.3748 9.57334 33.0948 8.948C32.8242 8.32267 32.6888 7.64134 32.6888 6.904C32.6888 6.15734 32.8242 5.476 33.0948 4.86C33.3748 4.23467 33.7622 3.69334 34.2568 3.236C34.7515 2.76934 35.3348 2.41 36.0068 2.158C36.6882 1.906 37.4255 1.78 38.2188 1.78C39.0215 1.78 39.7588 1.906 40.4308 2.158C41.1028 2.41 41.6862 2.76934 42.1808 3.236C42.6755 3.69334 43.0582 4.23467 43.3288 4.86C43.6088 5.476 43.7488 6.15734 43.7488 6.904C43.7488 7.64134 43.6088 8.32267 43.3288 8.948C43.0582 9.57334 42.6755 10.1193 42.1808 10.586C41.6862 11.0433 41.1028 11.398 40.4308 11.65C39.7588 11.902 39.0215 12.028 38.2188 12.028ZM38.2188 9.354C38.5268 9.354 38.8115 9.298 39.0728 9.186C39.3435 9.074 39.5768 8.91534 39.7728 8.71C39.9782 8.49534 40.1368 8.23867 40.2488 7.94C40.3608 7.632 40.4168 7.28667 40.4168 6.904C40.4168 6.52134 40.3608 6.18067 40.2488 5.882C40.1368 5.574 39.9782 5.31734 39.7728 5.112C39.5768 4.89734 39.3435 4.734 39.0728 4.622C38.8115 4.51 38.5268 4.454 38.2188 4.454C37.9108 4.454 37.6215 4.51 37.3508 4.622C37.0895 4.734 36.8562 4.89734 36.6508 5.112C36.4548 5.31734 36.3008 5.574 36.1888 5.882C36.0768 6.18067 36.0208 6.52134 36.0208 6.904C36.0208 7.28667 36.0768 7.632 36.1888 7.94C36.3008 8.23867 36.4548 8.49534 36.6508 8.71C36.8562 8.91534 37.0895 9.074 37.3508 9.186C37.6215 9.298 37.9108 9.354 38.2188 9.354Z" fill="#ffffff"/>
<path d="M27.7531 12.028C26.9598 12.028 26.2271 11.9067 25.5551 11.664C24.8924 11.412 24.3138 11.0573 23.8191 10.6C23.3338 10.1427 22.9558 9.60134 22.6851 8.976C22.4144 8.35067 22.2791 7.66 22.2791 6.904C22.2791 6.148 22.4144 5.45734 22.6851 4.832C22.9558 4.20667 23.3384 3.66534 23.8331 3.208C24.3278 2.75067 24.9111 2.40067 25.5831 2.158C26.2644 1.906 27.0111 1.78 27.8231 1.78C28.7938 1.78 29.6571 1.94334 30.4131 2.27C31.1784 2.59667 31.8084 3.06334 32.3031 3.67L30.1891 5.532C29.8811 5.17734 29.5451 4.91134 29.1811 4.734C28.8264 4.54734 28.4298 4.454 27.9911 4.454C27.6271 4.454 27.2958 4.51 26.9971 4.622C26.7078 4.734 26.4604 4.89734 26.2551 5.112C26.0498 5.32667 25.8911 5.58334 25.7791 5.882C25.6671 6.18067 25.6111 6.52134 25.6111 6.904C25.6111 7.268 25.6671 7.604 25.7791 7.912C25.8911 8.21067 26.0498 8.46734 26.2551 8.682C26.4604 8.89667 26.7031 9.06467 26.9831 9.186C27.2724 9.298 27.5944 9.354 27.9491 9.354C28.3224 9.354 28.6864 9.29334 29.0411 9.172C29.3958 9.04134 29.7738 8.822 30.1751 8.514L32.0231 10.782C31.4258 11.1833 30.7444 11.4913 29.9791 11.706C29.2138 11.9207 28.4718 12.028 27.7531 12.028ZM29.1531 10.362V6.638H32.0231V10.782L29.1531 10.362Z" fill="#ffffff"/>
<path d="M16.2919 12.028C15.4986 12.028 14.7612 11.902 14.0799 11.65C13.4079 11.398 12.8246 11.0433 12.3299 10.586C11.8352 10.1193 11.4479 9.57334 11.1679 8.948C10.8972 8.32267 10.7619 7.64134 10.7619 6.904C10.7619 6.15734 10.8972 5.476 11.1679 4.86C11.4479 4.23467 11.8352 3.69334 12.3299 3.236C12.8246 2.76934 13.4079 2.41 14.0799 2.158C14.7612 1.906 15.4986 1.78 16.2919 1.78C17.0946 1.78 17.8319 1.906 18.5039 2.158C19.1759 2.41 19.7592 2.76934 20.2539 3.236C20.7486 3.69334 21.1312 4.23467 21.4019 4.86C21.6819 5.476 21.8219 6.15734 21.8219 6.904C21.8219 7.64134 21.6819 8.32267 21.4019 8.948C21.1312 9.57334 20.7486 10.1193 20.2539 10.586C19.7592 11.0433 19.1759 11.398 18.5039 11.65C17.8319 11.902 17.0946 12.028 16.2919 12.028ZM16.2919 9.354C16.5999 9.354 16.8846 9.298 17.1459 9.186C17.4166 9.074 17.6499 8.91534 17.8459 8.71C18.0512 8.49534 18.2099 8.23867 18.3219 7.94C18.4339 7.632 18.4899 7.28667 18.4899 6.904C18.4899 6.52134 18.4339 6.18067 18.3219 5.882C18.2099 5.574 18.0512 5.31734 17.8459 5.112C17.6499 4.89734 17.4166 4.734 17.1459 4.622C16.8846 4.51 16.5999 4.454 16.2919 4.454C15.9839 4.454 15.6946 4.51 15.4239 4.622C15.1626 4.734 14.9292 4.89734 14.7239 5.112C14.5279 5.31734 14.3739 5.574 14.2619 5.882C14.1499 6.18067 14.0939 6.52134 14.0939 6.904C14.0939 7.28667 14.1499 7.632 14.2619 7.94C14.3739 8.23867 14.5279 8.49534 14.7239 8.71C14.9292 8.91534 15.1626 9.074 15.4239 9.186C15.6946 9.298 15.9839 9.354 16.2919 9.354Z" fill="#ffffff"/>
<path d="M3 11.804V2.004H6.304V9.242H10.728V11.804H3Z" fill="#ffffff"/>
</svg>
