<svg width="24" height="24" viewBox="0 0 24 24" fill="none" xmlns="http://www.w3.org/2000/svg">
<path d="M16.765 18L10.465 11.7C9.96504 12.1 9.39004 12.4167 8.74004 12.65C8.09004 12.8833 7.39837 13 6.66504 13C4.84837 13 3.31087 12.3708 2.05254 11.1125C0.794206 9.85417 0.165039 8.31667 0.165039 6.5C0.165039 4.68333 0.794206 3.14583 2.05254 1.8875C3.31087 0.629167 4.84837 0 6.66504 0C8.48171 0 10.0192 0.629167 11.2775 1.8875C12.5359 3.14583 13.165 4.68333 13.165 6.5C13.165 7.23333 13.0484 7.925 12.815 8.575C12.5817 9.225 12.265 9.8 11.865 10.3L18.165 16.6L16.765 18ZM6.66504 11C7.91504 11 8.97754 10.5625 9.85254 9.6875C10.7275 8.8125 11.165 7.75 11.165 6.5C11.165 5.25 10.7275 4.1875 9.85254 3.3125C8.97754 2.4375 7.91504 2 6.66504 2C5.41504 2 4.35254 2.4375 3.47754 3.3125C2.60254 4.1875 2.16504 5.25 2.16504 6.5C2.16504 7.75 2.60254 8.8125 3.47754 9.6875C4.35254 10.5625 5.41504 11 6.66504 11Z" fill="currentColor"/>
</svg>
